<svg xmlns="http://www.w3.org/2000/svg" width="60" height="60" viewBox="0 0 60 60"><defs><style>.a{fill:#fff;}.b,.d{fill:none;}.b{stroke:#fff;stroke-width:4px;}.c{stroke:none;}</style></defs><g transform="translate(-1657 -226.014)"><path class="a" d="M22.3,10.547H15.19V3.438a1.105,1.105,0,0,0-1.105-1.105H11.653a1.1,1.1,0,0,0-1.105,1.105v7.109H3.439a1.105,1.105,0,0,0-1.105,1.105v2.431a1.105,1.105,0,0,0,1.105,1.105h7.109V22.3A1.1,1.1,0,0,0,11.653,23.4h2.431A1.105,1.105,0,0,0,15.19,22.3V15.189H22.3A1.105,1.105,0,0,0,23.4,14.084V11.653A1.105,1.105,0,0,0,22.3,10.547Z" transform="translate(1673.895 243.036)"/><g class="b" transform="translate(1657 226.014)"><circle class="c" cx="30" cy="30" r="30"/><circle class="d" cx="30" cy="30" r="28"/></g></g></svg>